<svg width="0" height="0" xmlns="http://www.w3.org/2000/svg">
  <symbol id="logoIntersection">
    <title>Intersection</title>
    <path d="m0 0h96v96h-96z" fill="#e26f54"/><path d="m17.9381-9.55127 58.3074 58.30747-6.0174 6.0174-58.3075-58.30745z" fill="#fff"/><path d="m78.2274-7.79651 6.0174 6.01742-57.261 57.26099-6.0174-6.0175z" opacity=".36"/><path d="m77.5274-8.49652 6.0174 6.01742-57.2609 57.2609-6.0175-6.0174z" fill="#bdccd4"/><path d="m26.9799 43.455 55.8396 55.8397-6.0174 6.0173-55.8397-55.8396z" opacity=".36"/><path d="m26.2798 42.7549 55.8397 55.8397-6.0174 6.0174-55.8397-55.8396z" fill="#bdccd4"/><path d="m70.9379 43.4512 6.0174 6.0174-55.8397 55.8394-6.0174-6.0172z" opacity=".36"/><path d="m70.2379 42.7513 6.0174 6.0174-55.8397 55.8393-6.0174-6.0171z" fill="#fff"/>
  </symbol>
  <symbol id="logoBuild">
    <title id="logoBuildTitle">喜歡的 UI 就要親手做出來</title>
    <rect x="123" width="80" height="80" fill="#EBE4C2"/>
    <rect x="356" y="20" width="60" height="60" fill="#BFEDE0"/>
    <path d="M11.4102 30.1641C10.5664 30.1641 10.1445 29.7773 10.1445 29.0039C10.1445 28.2539 10.5664 27.8789 11.4102 27.8789H24.3828V26.8242C24.3828 25.8398 24.875 25.3477 25.8594 25.3477C26.8203 25.3477 27.3008 25.8398 27.3008 26.8242V27.8789H40.5547C41.4219 27.8789 41.8555 28.2656 41.8555 29.0391C41.8555 29.7891 41.4219 30.1641 40.5547 30.1641H27.3008V32.0977H38.6914C39.5117 32.0977 39.9219 32.4727 39.9219 33.2227C39.9219 33.9492 39.5117 34.3125 38.6914 34.3125H13.2734C12.4531 34.3125 12.043 33.9375 12.043 33.1875C12.043 32.4609 12.4531 32.0977 13.2734 32.0977H24.3828V30.1641H11.4102ZM40.7305 44.5781C41.6211 44.5781 42.0664 44.9648 42.0664 45.7383C42.0664 46.5117 41.6211 46.8984 40.7305 46.8984H11.2695C10.3789 46.8984 9.93359 46.5117 9.93359 45.7383C9.93359 45.3398 10.0391 45.0469 10.25 44.8594C10.4609 44.6719 10.8008 44.5781 11.2695 44.5781H18.6523L18.1602 42.4336H16.332C14.5273 42.4336 13.625 41.625 13.625 40.0078V38.2148C13.625 36.5273 14.5273 35.7188 16.332 35.7891H35.6328C37.4609 35.7891 38.3867 36.5977 38.4102 38.2148V40.0078C38.4102 41.625 37.4844 42.4336 35.6328 42.4336H33.6641L32.9961 44.5781H40.7305ZM16.5078 39.0938C16.5078 39.5391 16.5664 39.8438 16.6836 40.0078C16.8242 40.1719 17.0469 40.2656 17.3516 40.2891H34.6133C34.9414 40.2891 35.1641 40.1953 35.2812 40.0078C35.4219 39.7969 35.4922 39.4453 35.4922 38.9531C35.4922 38.5781 35.4219 38.3203 35.2812 38.1797C35.1406 38.0156 34.918 37.9219 34.6133 37.8984H17.3516C17.0703 37.8984 16.8594 37.9922 16.7188 38.1797C16.5781 38.3672 16.5078 38.6719 16.5078 39.0938ZM20.9023 42.4336L21.4648 44.5781H30.2891L30.8867 42.4336H20.9023ZM35.8086 48.6211C36.8398 48.6211 37.5898 48.8555 38.0586 49.3242C38.5273 49.7695 38.7383 50.4961 38.6914 51.5039V53.4727C38.6914 54.4805 38.457 55.2188 37.9883 55.6875C37.5195 56.1562 36.793 56.3672 35.8086 56.3203H16.1562C15.1484 56.3203 14.3984 56.0859 13.9062 55.6172C13.4375 55.1719 13.2266 54.457 13.2734 53.4727V51.5039C13.2734 50.4727 13.5078 49.7227 13.9766 49.2539C14.4453 48.7852 15.1719 48.5742 16.1562 48.6211H35.8086ZM35.7031 51.9609C35.7031 51.2812 35.3398 50.918 34.6133 50.8711H17.3516C16.6719 50.8711 16.3086 51.2344 16.2617 51.9609V52.9805C16.2617 53.6602 16.625 54.0234 17.3516 54.0703H34.6133C35.3164 54.0703 35.6797 53.707 35.7031 52.9805V51.9609Z" fill="#18191A"/>
    <path d="M47.1992 30.0938C46.3086 30.0938 45.8633 29.6836 45.8633 28.8633C45.8633 28.0664 46.3086 27.668 47.1992 27.668H50.6094V26.5781C50.6094 25.6406 51.043 25.1719 51.9102 25.1719C52.7773 25.1719 53.2109 25.6406 53.2109 26.5781V27.668H56.6211V26.5781C56.6211 25.6406 57.0664 25.1719 57.957 25.1719C58.8242 25.1719 59.2578 25.6406 59.2578 26.5781V27.668H62.5977C63.0195 27.668 63.3477 27.7734 63.582 27.9844C63.8398 28.1953 63.9688 28.4883 63.9688 28.8633C63.9688 29.6836 63.5117 30.0938 62.5977 30.0938H59.2578V30.832C59.2578 31.3008 59.1406 31.6641 58.9062 31.9219C58.6953 32.1562 58.3789 32.2734 57.957 32.2734C57.0664 32.2734 56.6211 31.793 56.6211 30.832V30.0938H53.2109V30.832C53.2109 31.793 52.7773 32.2734 51.9102 32.2734C51.043 32.2734 50.6094 31.793 50.6094 30.832V30.0938H47.1992ZM77.0469 53.7539C77.4219 54.0586 77.6914 54.3398 77.8555 54.5977C78.043 54.8789 78.1367 55.1602 78.1367 55.4414C78.1367 56.6133 77.6211 57.1992 76.5898 57.1992C76.168 57.1992 75.6523 56.9297 75.043 56.3906C74.457 55.875 73.7305 55.0781 72.8633 54C71.9492 52.8281 71.2227 51.6797 70.6836 50.5547C70.1445 49.4297 69.6992 48.1172 69.3477 46.6172C68.9492 48.6797 68.4453 50.3789 67.8359 51.7148C67.1562 53.2148 66.2773 54.5039 65.1992 55.582C64.0742 56.7539 63.1953 57.3398 62.5625 57.3398C61.5547 57.3398 61.0508 56.8594 61.0508 55.8984V55.7578H60.8047H51.1719C49.3672 55.7578 48.4648 54.8438 48.4648 53.0156V45.5273C47.7383 46.4883 47.1758 46.9688 46.7773 46.9688C46.0977 46.9688 45.7578 46.5469 45.7578 45.7031C45.7578 45.2344 45.9805 44.7422 46.4258 44.2266C47.6914 42.7031 48.5703 41.3906 49.0625 40.2891C49.3203 39.6797 49.6602 39.293 50.082 39.1289H48.9922C47.5156 39.1289 46.7773 38.3789 46.7773 36.8789V34.6289C46.7773 33.9023 46.9648 33.3516 47.3398 32.9766C47.7148 32.5781 48.2656 32.3789 48.9922 32.3789H52.0508C53.5508 32.3789 54.3008 33.1523 54.3008 34.6992V36.8789C54.3008 38.3789 53.5508 39.1289 52.0508 39.1289H51.1719C51.5703 39.3164 51.7695 39.6562 51.7695 40.1484C51.7695 40.4062 51.5938 40.8047 51.2422 41.3438H55.0742L55.6719 40.1484C56 39.5391 56.3516 39.1758 56.7266 39.0586C55.6484 38.8477 55.1094 38.0977 55.1094 36.8086V34.6289C55.1094 33.9023 55.2969 33.3516 55.6719 32.9766C56.0703 32.5781 56.6328 32.3789 57.3594 32.3789H60.5234C62 32.3789 62.7383 33.1289 62.7383 34.6289V36.8789C62.7383 37.1133 62.7266 37.2891 62.7031 37.4062C63.8516 34.8281 64.8477 31.3828 65.6914 27.0703C65.9258 25.9219 66.3945 25.3477 67.0977 25.3477C68.0586 25.3477 68.5391 25.7344 68.5391 26.5078L68.4336 27.2812L67.4492 31.3242H75.0781C76.8828 31.3242 77.7852 31.9688 77.7852 33.2578C77.7852 33.6562 77.5742 34.3125 77.1523 35.2266L76.3438 37.0898C75.6875 38.5898 75.125 39.6914 74.6562 40.3945C74.2109 41.0977 73.8125 41.4492 73.4609 41.4492C72.5703 41.4492 72.125 41.0859 72.125 40.3594C72.125 40.0547 72.2539 39.6211 72.5117 39.0586C72.9336 38.1211 73.3789 37.0195 73.8477 35.7539L74.2344 34.7344C74.2812 34.5938 74.3047 34.4883 74.3047 34.418C74.3047 34.1602 74.0938 34.0312 73.6719 34.0312H66.6406C66.2656 35.0156 65.7266 36.4922 65.0234 38.4609C64.6719 39.4688 64.2031 39.9727 63.6172 39.9727C62.7266 39.9727 62.2812 39.5391 62.2812 38.6719C62.2812 38.5781 62.293 38.4961 62.3164 38.4258C61.9648 38.8945 61.3906 39.1289 60.5938 39.1289H57.7812C58.2266 39.2695 58.4492 39.5742 58.4492 40.043C58.4492 40.3477 58.2383 40.7812 57.8164 41.3438H61.9648C62.7617 41.3438 63.1602 41.707 63.1602 42.4336C63.1602 43.1602 62.7617 43.5234 61.9648 43.5234H57.3242V45.3516H61.6836C62.0352 45.3516 62.3047 45.4453 62.4922 45.6328C62.7031 45.7969 62.8086 46.0312 62.8086 46.3359C62.8086 46.9922 62.4336 47.3203 61.6836 47.3203H57.3242V49.2539H61.4727C62.2227 49.2539 62.5977 49.582 62.5977 50.2383C62.5977 50.8945 62.2227 51.2227 61.4727 51.2227H57.3242V53.5078H60.8047C61.6016 53.5078 62.0586 53.7422 62.1758 54.2109C64.168 52.5938 65.5625 50.3672 66.3594 47.5312C66.7578 46.125 67.0508 44.6016 67.2383 42.9609C67.4492 41.2969 67.5547 39.668 67.5547 38.0742V36.4219C67.5547 35.4609 68.0234 34.9805 68.9609 34.9805C69.8984 34.9805 70.3672 35.4492 70.3672 36.3867L70.332 37.3711C70.2617 39.1758 70.1914 40.4297 70.1211 41.1328C71.2461 46.7578 73.5547 50.9648 77.0469 53.7539ZM49.0273 36.4219C49.0273 36.6328 49.0742 36.7852 49.168 36.8789C49.2617 36.9492 49.4258 36.9844 49.6602 36.9844H51.4531C51.6406 36.9844 51.7695 36.9492 51.8398 36.8789C51.9336 36.7852 51.9922 36.6328 52.0156 36.4219V35.1211C52.0156 34.9102 51.9688 34.7695 51.875 34.6992C51.8047 34.6055 51.6641 34.5469 51.4531 34.5234H49.6602C49.4492 34.5234 49.2969 34.5703 49.2031 34.6641C49.1094 34.7578 49.0508 34.9102 49.0273 35.1211V36.4219ZM57.3945 36.4219C57.3945 36.6094 57.4297 36.75 57.5 36.8438C57.5938 36.9141 57.7461 36.9609 57.957 36.9844H59.8906C60.2656 36.9844 60.4531 36.7969 60.4531 36.4219V35.1211C60.4531 34.9336 60.4062 34.793 60.3125 34.6992C60.2422 34.6055 60.1016 34.5469 59.8906 34.5234H57.957C57.582 34.5234 57.3945 34.7227 57.3945 35.1211V36.4219ZM51.5938 43.5234C51.3594 43.5234 51.1953 43.5703 51.1016 43.6641C51.0312 43.7578 50.9844 43.9219 50.9609 44.1562V45.3516H54.8633V43.5234H51.5938ZM54.8633 49.2539V47.3203H50.9609V49.2539H54.8633ZM50.9609 52.7695C50.9609 53.2383 51.2188 53.4844 51.7344 53.5078H54.8633V51.2227H50.9609V52.7695Z" fill="#18191A"/>
    <path d="M104.469 57.2344C103.812 57.2109 103.344 57.082 103.062 56.8477C102.781 56.6133 102.641 56.25 102.641 55.7578C102.641 54.7969 103.18 54.3164 104.258 54.3164C105.711 54.3164 106.73 54.2812 107.316 54.2109C107.902 54.1641 108.348 54.0352 108.652 53.8242C108.957 53.6133 109.203 53.2383 109.391 52.6992C109.719 51.7383 109.977 49.3945 110.164 45.668C110.352 41.9414 110.445 38.4023 110.445 35.0508C110.445 34.1602 109.93 33.7148 108.898 33.7148H101.059C100.66 34.957 99.9453 36.3867 98.9141 38.0039C98.5859 38.543 98.1758 38.8125 97.6836 38.8125C97.4258 38.8125 97.1797 38.7422 96.9453 38.6016C96.4766 38.3438 96.2422 37.9805 96.2422 37.5117C96.2422 37.207 96.3359 36.8906 96.5234 36.5625C97.5078 34.7109 98.2344 33.1523 98.7031 31.8867C99.2891 30.3398 99.8398 28.6055 100.355 26.6836C100.473 26.2852 100.648 25.9805 100.883 25.7695C101.141 25.5352 101.445 25.418 101.797 25.418C101.891 25.418 102.055 25.4414 102.289 25.4883C102.992 25.6523 103.344 26.0742 103.344 26.7539C103.344 26.9883 103.309 27.2461 103.238 27.5273C103.074 28.207 102.875 28.8867 102.641 29.5664C102.406 30.2227 102.184 30.7383 101.973 31.1133H110.41C112.473 31.1133 113.504 31.9805 113.504 33.7148C113.504 38.1211 113.387 42.375 113.152 46.4766C112.918 50.5547 112.52 53.2852 111.957 54.668C111.535 55.6523 110.891 56.332 110.023 56.707C109.156 57.082 107.844 57.2695 106.086 57.2695C105.383 57.2695 104.844 57.2578 104.469 57.2344ZM85.6602 56.6719C84.7695 56.6719 84.0898 56.4375 83.6211 55.9688C83.1758 55.5234 82.9531 54.8555 82.9531 53.9648V33.9609C82.9531 33.0703 83.1758 32.3906 83.6211 31.9219C84.0664 31.4531 84.7227 31.2188 85.5898 31.2188H87.3828C87.5703 30.1641 87.793 28.6758 88.0508 26.7539C88.0977 26.332 88.25 26.0156 88.5078 25.8047C88.7656 25.5938 89.1055 25.4883 89.5273 25.4883C90.6992 25.4883 91.2031 26.0859 91.0391 27.2812C90.8516 28.5938 90.5469 29.9062 90.125 31.2188H92.7969C94.5781 31.2188 95.4688 32.1328 95.4688 33.9609L95.5039 53.9648C95.5039 55.7695 94.6016 56.6719 92.7969 56.6719H85.6602ZM92.6211 35.0508C92.6211 34.2773 92.2344 33.8906 91.4609 33.8906H86.9961C86.2227 33.8906 85.8359 34.2773 85.8359 35.0508V42.082H92.6211V35.0508ZM104.223 47.9883C103.848 47.9883 103.52 47.8594 103.238 47.6016C102.957 47.3203 102.676 46.9102 102.395 46.3711C101.949 45.5742 101.293 44.5078 100.426 43.1719L99.9336 42.3984C99.8164 42.2344 99.7109 42.0352 99.6172 41.8008C99.5469 41.5664 99.5117 41.3672 99.5117 41.2031C99.5117 40.8047 99.6289 40.5 99.8633 40.2891C100.098 40.0547 100.402 39.9375 100.777 39.9375C101.152 39.9375 101.551 40.1484 101.973 40.5703C102.395 40.9922 102.934 41.6836 103.59 42.6445C104.949 44.6836 105.629 46.0312 105.629 46.6875C105.629 47.0859 105.5 47.4023 105.242 47.6367C105.008 47.8711 104.668 47.9883 104.223 47.9883ZM91.4609 54C92.2344 54 92.6211 53.6133 92.6211 52.8398V44.6836H85.8359V52.8398C85.8359 53.6133 86.2227 54 86.9961 54H91.4609Z" fill="#18191A"/>
    <path d="M212.375 47.0273C211.414 47.0273 210.934 46.582 210.934 45.6914C210.934 44.7773 211.414 44.3203 212.375 44.3203H217.965V42.0703C217.965 40.9922 218.445 40.4531 219.406 40.4531C220.391 40.4531 220.883 40.9922 220.883 42.0703V44.3203H226.297C227.305 44.3203 227.809 44.7773 227.809 45.6914C227.809 46.582 227.305 47.0273 226.297 47.0273H212.375ZM225.066 71.8828C224.176 71.8828 223.73 71.4023 223.73 70.4414C223.73 70.2305 223.848 69.9727 224.082 69.668C224.34 69.3633 224.738 68.9648 225.277 68.4727C228.207 65.8945 230.059 62.3203 230.832 57.75C231.184 55.7344 231.43 53.4258 231.57 50.8242H228.406C227.281 50.8242 226.719 50.3555 226.719 49.418C226.719 48.457 227.281 47.9766 228.406 47.9766H231.711L231.852 44.7773L231.816 42.0703C231.816 41.0156 232.297 40.4883 233.258 40.4883C234.172 40.4883 234.629 40.9922 234.629 42L234.418 47.9766H240.746C241.895 47.9766 242.469 48.457 242.469 49.418C242.469 50.3555 241.895 50.8242 240.746 50.8242H234.277C233.926 55.5352 233.246 59.4492 232.238 62.5664C231.254 65.5898 229.754 68.1094 227.738 70.125C226.566 71.2969 225.676 71.8828 225.066 71.8828ZM239.516 46.8516C239.141 46.8516 238.473 46.1719 237.512 44.8125L236.984 44.0742C236.633 43.6055 236.457 43.2656 236.457 43.0547C236.457 42.3516 236.891 42 237.758 42C238.32 42 239.012 42.5508 239.832 43.6523C240.582 44.6602 240.957 45.3281 240.957 45.6562C240.957 46.4531 240.477 46.8516 239.516 46.8516ZM216.277 72.0586C215.176 72.0586 214.625 71.5898 214.625 70.6523C214.625 69.7148 215.059 69.2461 215.926 69.2461H217.051C217.824 69.2461 218.223 68.7188 218.246 67.6641V58.9453H215.188C214.203 58.9453 213.477 58.7227 213.008 58.2773C212.562 57.832 212.352 57.1289 212.375 56.168V52.3008C212.375 51.3164 212.598 50.6016 213.043 50.1562C213.512 49.6875 214.227 49.4648 215.188 49.4883H223.59C224.598 49.4883 225.336 49.7227 225.805 50.1914C226.273 50.6367 226.484 51.3398 226.438 52.3008V56.168C226.438 57.1523 226.215 57.8789 225.77 58.3477C225.324 58.793 224.621 58.9922 223.66 58.9453H220.988V68.8242C220.988 69.9727 220.73 70.8164 220.215 71.3555C219.699 71.8945 218.891 72.1289 217.789 72.0586H216.277ZM222.641 56.5195C223.344 56.5195 223.707 56.168 223.73 55.4648V52.9688C223.73 52.3125 223.367 51.9609 222.641 51.9141H216.207C215.551 51.9141 215.199 52.2656 215.152 52.9688V55.4648C215.152 56.1211 215.504 56.4727 216.207 56.5195H222.641ZM237.828 71.4609C236.258 71.4609 235.191 71.3203 234.629 71.0391C234.066 70.7344 233.785 70.1367 233.785 69.2461V56.0977C233.785 55.0898 234.23 54.5859 235.121 54.5859C236.035 54.5859 236.492 55.0898 236.492 56.0977V67.6641C236.492 68.3906 236.891 68.7539 237.688 68.7539C238.789 68.7539 239.504 68.6719 239.832 68.5078C240.137 68.3438 240.301 67.5703 240.324 66.1875C240.348 65.4844 240.465 64.9688 240.676 64.6406C240.91 64.2891 241.25 64.1133 241.695 64.1133C242.609 64.1133 243.066 64.5703 243.066 65.4844C243.066 68.25 242.715 69.9375 242.012 70.5469C241.285 71.1562 239.891 71.4609 237.828 71.4609ZM212.27 68.8242C211.379 68.8242 210.934 68.3438 210.934 67.3828C210.934 67.0781 211.168 66.5625 211.637 65.8359C212.152 65.0625 212.773 63.7266 213.5 61.8281C213.969 60.6562 214.461 60.0703 214.977 60.0703C215.797 60.0703 216.207 60.4805 216.207 61.3008C216.207 62.1914 215.551 63.9609 214.238 66.6094C213.512 68.0859 212.855 68.8242 212.27 68.8242ZM225.84 65.9766C225.301 65.9766 224.82 65.5547 224.398 64.7109C223.977 63.8203 223.531 63 223.062 62.25C222.852 61.9219 222.746 61.6406 222.746 61.4062C222.746 60.6328 223.156 60.2461 223.977 60.2461C224.516 60.2461 225.184 60.8789 225.98 62.1445C226.355 62.7305 226.637 63.2344 226.824 63.6562C227.035 64.0781 227.141 64.3711 227.141 64.5352C227.141 65.4961 226.707 65.9766 225.84 65.9766Z" fill="#18191A"/>
    <path d="M277.555 59.0156C278.539 59.0156 279.031 59.4258 279.031 60.2461C279.031 61.0898 278.539 61.5117 277.555 61.5117H270.91C269.926 63.668 268.848 65.3789 267.676 66.6445C269.762 67.2539 271.777 67.9102 273.723 68.6133C274.848 69.0117 275.68 69.3867 276.219 69.7383C276.758 70.1133 277.027 70.4883 277.027 70.8633C277.027 71.8711 276.57 72.375 275.656 72.375C275.211 72.375 274.18 72.0117 272.562 71.2852C270.781 70.4883 268.59 69.6562 265.988 68.7891L265.391 68.5781H265.355C262.379 70.5703 257.855 71.7305 251.785 72.0586L249.781 72.1289C248.773 72.1523 248.27 71.6719 248.27 70.6875C248.27 70.4766 248.305 70.3008 248.375 70.1602C248.469 70.043 248.598 69.9258 248.762 69.8086C249.09 69.5742 250.074 69.4453 251.715 69.4219C256.449 69.2812 259.941 68.6953 262.191 67.6641C260.41 67.2656 258.605 66.9258 256.777 66.6445C254.785 66.3633 253.789 65.7891 253.789 64.9219C253.789 64.4062 254.234 63.6328 255.125 62.6016L255.934 61.5117H248.375C247.438 61.5117 246.969 61.0898 246.969 60.2461C246.969 59.4258 247.438 59.0156 248.375 59.0156H257.586L259.238 56.2031H252.559C250.52 56.2031 249.5 55.2539 249.5 53.3555V50.2266C249.5 48.2109 250.52 47.2383 252.559 47.3086H257.516V44.4961H249.008C247.953 44.4961 247.426 44.0625 247.426 43.1953C247.426 42.3516 247.953 41.9297 249.008 41.9297H276.957C277.988 41.9297 278.504 42.3633 278.504 43.2305C278.504 44.0742 277.988 44.4961 276.957 44.4961H267.922V47.3086H273.371C274.426 47.3086 275.199 47.5547 275.691 48.0469C276.207 48.5156 276.465 49.2422 276.465 50.2266V53.2852C276.465 55.3008 275.434 56.2734 273.371 56.2031H262.227L261.91 56.8359L260.645 59.0156H277.555ZM260.117 44.4961V47.3086H265.355V44.4961H260.117ZM257.516 49.5938H253.613C253.191 49.5938 252.863 49.6992 252.629 49.9102C252.418 50.1211 252.301 50.4258 252.277 50.8242V52.6875C252.277 53.0625 252.395 53.3555 252.629 53.5664C252.863 53.7773 253.191 53.8945 253.613 53.918H257.516V49.5938ZM260.117 49.5938V53.918H265.355V49.5938H260.117ZM267.922 53.918H272.352C273.172 53.918 273.605 53.5078 273.652 52.6875V50.8242C273.652 50.0273 273.219 49.6172 272.352 49.5938H267.922V53.918ZM264.863 65.9062C266.035 64.8516 267.031 63.3867 267.852 61.5117H259.098L257.797 63.3047C257.562 63.6328 257.445 63.9258 257.445 64.1836C257.445 64.3711 257.715 64.5352 258.254 64.6758L264.828 65.9062H264.863Z" fill="#18191A"/>
    <path d="M298.086 65.4141C298.086 65.8594 297.98 66.1875 297.77 66.3984C297.582 66.5859 297.277 66.6797 296.855 66.6797C296.41 66.6797 295.812 66.2695 295.062 65.4492C294.57 64.9336 293.891 64.3594 293.023 63.7266L292.531 63.1992V70.7227C292.531 71.8711 292.074 72.4453 291.16 72.4453C290.246 72.4453 289.789 71.8711 289.789 70.7227V62.9531C288.922 64.4297 287.879 65.8359 286.66 67.1719C285.441 68.4844 284.598 69.1406 284.129 69.1406C283.332 69.1406 282.934 68.6953 282.934 67.8047C282.934 67.2422 283.438 66.5742 284.445 65.8008C286.578 64.1836 288.219 62.2383 289.367 59.9648H284.902C283.824 59.9648 283.285 59.543 283.285 58.6992C283.285 57.8555 283.824 57.4336 284.902 57.4336H289.789V54.0234H284.516C283.484 54.0234 282.969 53.5898 282.969 52.7227C282.969 52.2773 283.086 51.9609 283.32 51.7734C283.578 51.5625 283.977 51.457 284.516 51.457H286.73C286.566 49.957 286.285 48.3516 285.887 46.6406H284.727C283.836 46.6406 283.391 46.2188 283.391 45.375C283.391 44.5078 283.836 44.0742 284.727 44.0742H289.824V42C289.824 40.875 290.281 40.3125 291.195 40.3125C292.109 40.3125 292.566 40.875 292.566 42V44.0742H297.172C298.039 44.0742 298.473 44.5078 298.473 45.375C298.473 46.2188 298.039 46.6406 297.172 46.6406H296.223L295.238 51.457H297.102C298.133 51.457 298.648 51.8906 298.648 52.7578C298.648 53.6016 298.133 54.0234 297.102 54.0234H292.531V57.4336H296.75C297.781 57.4336 298.297 57.8555 298.297 58.6992C298.297 59.1445 298.168 59.4727 297.91 59.6836C297.676 59.8711 297.289 59.9648 296.75 59.9648H292.531V62.1094C292.672 61.9453 292.801 61.8281 292.918 61.7578C293.035 61.6641 293.188 61.6172 293.375 61.6172C293.773 61.6172 294.664 62.1211 296.047 63.1289C297.406 64.1133 298.086 64.875 298.086 65.4141ZM313.766 64.957C314.633 64.957 315.066 65.4141 315.066 66.3281C315.066 68.4609 314.715 69.8555 314.012 70.5117C313.309 71.168 312.148 71.4961 310.531 71.4961C308.891 71.4961 307.836 71.332 307.367 71.0039C306.945 70.6992 306.711 70.0898 306.664 69.1758V61.3008H304.625C304.531 63.5508 304.145 65.4023 303.465 66.8555C302.762 68.3555 301.672 69.5977 300.195 70.582C298.625 71.6133 297.43 72.1289 296.609 72.1289C295.766 72.1289 295.344 71.6719 295.344 70.7578C295.344 70.125 295.695 69.6797 296.398 69.4219C298.719 68.5781 300.324 67.2773 301.215 65.5195C301.637 64.6523 301.93 63.2461 302.094 61.3008C300.266 61.3477 299.352 60.375 299.352 58.3828V44.8125C299.352 42.8438 300.324 41.8594 302.27 41.8594H310.145C311.246 41.8594 312.031 42.0938 312.5 42.5625C312.992 43.0312 313.203 43.793 313.133 44.8477V58.3477C313.133 59.4023 312.898 60.1758 312.43 60.668C311.961 61.1367 311.199 61.3477 310.145 61.3008H309.23V68.0508C309.23 68.5898 309.688 68.8594 310.602 68.8594C311.492 68.8594 312.02 68.6836 312.184 68.332C312.371 67.9336 312.477 67.2773 312.5 66.3633C312.523 65.4258 312.945 64.957 313.766 64.957ZM302.094 47.4492H310.426V45.5508C310.426 44.8711 310.062 44.5078 309.336 44.4609H303.148C302.492 44.4609 302.141 44.8242 302.094 45.5508V47.4492ZM288.348 46.6406C288.605 47.7656 288.887 49.3711 289.191 51.457H292.848L293.727 46.6406H288.348ZM302.094 49.9805V53.0391H310.426V49.9805H302.094ZM309.336 58.6992C310.039 58.6992 310.402 58.3359 310.426 57.6094V55.5352H302.094V57.6445C302.094 58.3008 302.445 58.6523 303.148 58.6992H309.336Z" fill="#18191A"/>
    <path d="M330.184 72.1641C328.965 72.1641 328.355 71.6484 328.355 70.6172C328.355 69.6094 328.965 69.1055 330.184 69.1055H332.363C332.879 69.1055 333.277 68.9648 333.559 68.6836C333.84 68.4023 333.992 67.9922 334.016 67.4531V60.7383H320.727C319.602 60.7383 319.039 60.2695 319.039 59.332C319.039 58.3945 319.602 57.9258 320.727 57.9258H334.016V52.6172H323.609C322.508 52.6172 321.957 52.1602 321.957 51.2461C321.957 50.3555 322.508 49.9102 323.609 49.9102H334.016V44.8828L332.539 44.918C327.195 45.3398 323.914 45.5508 322.695 45.5508C321.406 45.5508 320.762 45.0469 320.762 44.0391C320.762 43.6406 320.938 43.2891 321.289 42.9844C321.477 42.7969 322.32 42.7031 323.82 42.7031C325.648 42.7031 327.734 42.6094 330.078 42.4219C333.031 42.1875 335.434 41.9648 337.285 41.7539C339.84 41.4727 341.832 41.1914 343.262 40.9102C345.02 40.5586 345.992 40.3828 346.18 40.3828C347.328 40.3828 347.902 40.9336 347.902 42.0352C347.902 42.293 347.773 42.5273 347.516 42.7383C347.281 42.9492 346.895 43.1367 346.355 43.3008C345.395 43.6289 342.242 44.0625 336.898 44.6016V49.9102H346.461C347.023 49.9102 347.434 50.0273 347.691 50.2617C347.973 50.4727 348.113 50.8125 348.113 51.2812C348.113 52.1719 347.562 52.6172 346.461 52.6172H336.898V57.9258H349.203C350.375 57.9258 350.961 58.3945 350.961 59.332C350.961 60.2695 350.375 60.7383 349.203 60.7383H336.898V68.0508C336.992 69.5273 336.699 70.5938 336.02 71.25C335.34 71.9297 334.273 72.2344 332.82 72.1641H330.184Z" fill="#18191A"/>
    <path d="M451.254 57.6094C452.215 57.6094 452.695 58.2188 452.695 59.4375V66.9258C452.695 68.1914 452.391 69.1406 451.781 69.7734C451.148 70.4062 450.199 70.7109 448.934 70.6875H427.137C425.871 70.6875 424.934 70.3828 424.324 69.7734C423.691 69.1406 423.375 68.1914 423.375 66.9258V59.4375C423.375 58.2422 423.855 57.6445 424.816 57.6445C425.801 57.6445 426.293 58.2305 426.293 59.4023V66.2578C426.293 67.2891 426.82 67.8047 427.875 67.8047H436.418V55.2891H428.402C427.137 55.2891 426.211 55.0195 425.625 54.4805C425.062 53.9414 424.828 53.0625 424.922 51.8438V44.9531C424.922 43.7812 425.414 43.1953 426.398 43.1953C426.867 43.1953 427.219 43.3359 427.453 43.6172C427.711 43.8984 427.84 44.3086 427.84 44.8477V50.8594C427.84 51.8906 428.344 52.4062 429.352 52.4062H436.418V42.2812C436.418 40.9922 436.922 40.3477 437.93 40.3477C438.914 40.3477 439.406 40.9922 439.406 42.2812V52.4062H446.719C447.75 52.4062 448.266 51.8906 448.266 50.8594V44.8828C448.266 43.7578 448.746 43.1953 449.707 43.1953C450.691 43.1953 451.184 43.793 451.184 44.9883V51.8438C451.348 54.3047 450.188 55.4531 447.703 55.2891H439.406V67.8047H448.23C449.215 67.8047 449.73 67.2891 449.777 66.2578V59.4023C449.777 58.207 450.27 57.6094 451.254 57.6094Z" fill="#18191A"/>
    <path d="M488.906 66.75C489.586 67.0312 489.926 67.4766 489.926 68.0859C489.926 68.5781 489.762 68.9883 489.434 69.3164C489.129 69.6445 488.789 69.7852 488.414 69.7383C487.055 69.5508 485.086 68.5898 482.508 66.8555C479.438 64.793 477.035 62.7773 475.301 60.8086V70.7578C475.301 71.8359 474.809 72.375 473.824 72.375C472.84 72.375 472.348 71.8359 472.348 70.7578V60.9492C470.777 62.7305 468.844 64.4531 466.547 66.1172C464.273 67.7578 462.094 68.9648 460.008 69.7383C459.797 69.8086 459.598 69.8438 459.41 69.8438C459.035 69.8438 458.73 69.7031 458.496 69.4219C458.262 69.1406 458.145 68.7891 458.145 68.3672C458.145 68.0625 458.227 67.8047 458.391 67.5938C458.578 67.3594 458.871 67.1602 459.27 66.9961C461.262 66.1055 463.559 64.7344 466.16 62.8828C468.785 61.0078 470.848 59.2148 472.348 57.5039V47.2031H460.5C459.375 47.2031 458.812 46.7578 458.812 45.8672C458.812 44.9766 459.375 44.5312 460.5 44.5312H472.348V42C472.348 40.9219 472.84 40.3828 473.824 40.3828C474.809 40.3828 475.301 40.9219 475.301 42V44.5312H487.184C488.285 44.5312 488.836 44.9766 488.836 45.8672C488.836 46.7578 488.285 47.2031 487.184 47.2031H475.301V57.6797C476.988 59.4609 478.98 61.1367 481.277 62.707C483.598 64.2773 486.141 65.625 488.906 66.75ZM484.406 49.5938C484.406 50.2734 484.102 51.2227 483.492 52.4414C485.133 53.543 486.715 54.7852 488.238 56.168C488.637 56.4961 488.836 56.8945 488.836 57.3633C488.836 57.7852 488.707 58.125 488.449 58.3828C488.215 58.6172 487.863 58.7344 487.395 58.7344C487.113 58.7344 486.855 58.6641 486.621 58.5234C486.387 58.3594 486.094 58.1016 485.742 57.75L485.18 57.1875C484.266 56.25 483.316 55.3359 482.332 54.4453C481.418 55.9922 480.422 57.1992 479.344 58.0664C478.945 58.3945 478.57 58.5586 478.219 58.5586C477.891 58.5586 477.598 58.4297 477.34 58.1719C477.082 57.9141 476.953 57.6445 476.953 57.3633C476.953 56.9883 477.164 56.5664 477.586 56.0977C478.5 55.1367 479.273 54.1289 479.906 53.0742C480.539 52.0195 481.125 50.7891 481.664 49.3828C481.922 48.7031 482.379 48.3633 483.035 48.3633C483.434 48.3633 483.762 48.4922 484.02 48.75C484.277 48.9844 484.406 49.2656 484.406 49.5938ZM466.723 49.8047C466.723 50.3906 466.441 51.3047 465.879 52.5469C467.848 53.9062 469.254 54.9961 470.098 55.8164C470.496 56.2148 470.695 56.6133 470.695 57.0117C470.695 57.4102 470.566 57.7266 470.309 57.9609C470.051 58.1953 469.711 58.3125 469.289 58.3125C469.008 58.3125 468.75 58.2422 468.516 58.1016C468.281 57.9375 468 57.6914 467.672 57.3633L464.789 54.5156C463.594 56.5781 462.434 58.1016 461.309 59.0859C460.91 59.4609 460.477 59.6484 460.008 59.6484C459.656 59.6484 459.352 59.5195 459.094 59.2617C458.883 59.0508 458.777 58.8047 458.777 58.5234C458.777 58.1016 459.012 57.6211 459.48 57.082C461.402 54.7852 462.867 52.3125 463.875 49.6641C464.18 48.9141 464.684 48.5391 465.387 48.5391C465.785 48.5391 466.102 48.668 466.336 48.9258C466.594 49.1836 466.723 49.4766 466.723 49.8047Z" fill="#18191A"/>
    <path d="M152.648 68.7734C149.273 68.7734 146.062 68.0703 143.016 66.6641C139.781 65.2109 137.203 63.0078 135.281 60.0547C133.359 57.1016 132.398 53.6094 132.398 49.5781V21.8047C132.398 20.9141 132.703 20.1406 133.312 19.4844C133.969 18.8281 134.742 18.5 135.633 18.5C136.523 18.5 137.297 18.8281 137.953 19.4844C138.609 20.1406 138.938 20.9141 138.938 21.8047V49.7891C138.938 52.6484 139.594 55.0156 140.906 56.8906C142.125 58.8125 143.766 60.2891 145.828 61.3203C147.938 62.3047 150.211 62.7969 152.648 62.7969C155.039 62.7969 157.289 62.3047 159.398 61.3203C161.602 60.2891 163.312 58.7891 164.531 56.8203C165.75 54.8047 166.359 52.4609 166.359 49.7891V21.8047C166.359 20.9141 166.664 20.1406 167.273 19.4844C167.93 18.8281 168.703 18.5 169.594 18.5C170.484 18.5 171.258 18.8281 171.914 19.4844C172.57 20.1406 172.898 20.9141 172.898 21.8047V49.5781C172.898 53.7031 171.914 57.2422 169.945 60.1953C168.023 63.0078 165.516 65.1406 162.422 66.5938C159.375 68.0469 156.117 68.7734 152.648 68.7734Z" fill="#18191A"/>
    <path d="M189.281 68.4219C188.391 68.4219 187.617 68.1172 186.961 67.5078C186.352 66.8516 186.047 66.0781 186.047 65.1875V21.8047C186.047 20.9141 186.352 20.1406 186.961 19.4844C187.617 18.8281 188.391 18.5 189.281 18.5C190.172 18.5 190.945 18.8281 191.602 19.4844C192.258 20.1406 192.586 20.9141 192.586 21.8047V65.1875C192.586 66.0781 192.258 66.8516 191.602 67.5078C190.945 68.1172 190.172 68.4219 189.281 68.4219Z" fill="#18191A"/>
    <path d="M371.469 71.5938C370.25 71.5938 369.641 70.9062 369.641 69.5312V47.9688L368.703 49.75C367.547 51.9375 366.656 53.0312 366.031 53.0312C365.062 53.0312 364.578 52.375 364.578 51.0625C364.578 50.5625 365.188 49.3125 366.406 47.3125C367.312 45.8438 368.547 43.0781 370.109 39.0156C371.266 35.9219 372.094 33.3281 372.594 31.2344C372.969 29.6094 373.703 28.7969 374.797 28.7969C376.047 28.7969 376.672 29.3281 376.672 30.3906C376.672 31.5469 375.547 34.8281 373.297 40.2344V69.5312C373.297 70.9062 372.688 71.5938 371.469 71.5938ZM388.156 71.3594C386.875 71.3594 386.234 70.7188 386.234 69.4375C386.234 68.5938 386.875 67.8906 388.156 67.3281C391.188 66.0156 393.719 64.0625 395.75 61.4688C394 57.8438 392.844 52.5156 392.281 45.4844C391.031 48.0156 390.016 49.2812 389.234 49.2812C388.234 49.2812 387.734 48.6406 387.734 47.3594C387.734 46.9531 387.984 46.3594 388.484 45.5781C390.578 42.3281 392.359 37.4062 393.828 30.8125C394.141 29.4688 394.781 28.7969 395.75 28.7969C397 28.7969 397.625 29.3438 397.625 30.4375C397.625 31.0625 396.906 33.5625 395.469 37.9375H405.641C406.828 37.9375 407.422 38.5625 407.422 39.8125C407.422 41.0625 406.828 41.6875 405.641 41.6875H404.375L404.188 44.6406C403.719 52.0781 402.266 57.7344 399.828 61.6094C401.328 63.4844 403.484 65.3125 406.297 67.0938C407.047 67.5625 407.422 68.2031 407.422 69.0156C407.422 70.4531 406.734 71.1719 405.359 71.1719C404.328 71.1719 402.547 69.875 400.016 67.2812C398.953 66.125 398.172 65.2188 397.672 64.5625C396.234 66.125 394.469 67.6719 392.375 69.2031C390.375 70.6406 388.969 71.3594 388.156 71.3594ZM379.672 66.4375C378.422 66.4375 377.516 66.1719 376.953 65.6406C376.391 65.0781 376.141 64.2031 376.203 63.0156V52.7969C376.203 51.5469 376.469 50.6562 377 50.125C377.531 49.5625 378.391 49.3125 379.578 49.375H381.031V41.2656H377.188C375.875 41.2656 375.219 40.6875 375.219 39.5312C375.219 38.375 375.875 37.7969 377.188 37.7969H381.031V30.7188C381.031 29.4688 381.609 28.8438 382.766 28.8438C383.922 28.8438 384.5 29.4688 384.5 30.7188V37.7969H388.109C389.422 37.7969 390.078 38.375 390.078 39.5312C390.078 40.6875 389.422 41.2656 388.109 41.2656H384.5V49.375H386.141C387.328 49.375 388.188 49.6562 388.719 50.2188C389.281 50.75 389.531 51.6094 389.469 52.7969V63.0156C389.469 64.2344 389.188 65.125 388.625 65.6875C388.094 66.25 387.234 66.5 386.047 66.4375H379.672ZM397.906 58.2344C399.656 55.0469 400.703 49.5312 401.047 41.6875H395.188C395.5 49.125 396.406 54.6406 397.906 58.2344ZM384.641 63.0156C385.547 63.0156 386.031 62.5312 386.094 61.5625V54.25C386.094 53.3438 385.609 52.8594 384.641 52.7969H381.078C380.141 52.7969 379.656 53.2812 379.625 54.25V61.5625C379.625 62.4688 380.109 62.9531 381.078 63.0156H384.641Z" fill="#18191A"/>
  </symbol>
</svg>
